{"accessors":[{"bufferView":0,"componentType":5126,"count":208351,"max":[0.15331043303012848,0.141561821103096,-0.2695000171661377],"min":[-0.15345613658428192,-0.18478043377399445,-0.38587501645088196],"type":"VEC3"},{"bufferView":1,"componentType":5121,"count":208351,"max":[255,255,255,255],"min":[2,0,0,255],"normalized":true,"type":"VEC4"},{"bufferView":2,"componentType":5126,"count":223963,"max":[1.4906688928604126,0.14183539152145386,-0.2692500054836273],"min":[-2.439404010772705,-1.544555425643921,-6.162875175476074],"type":"VEC3"},{"bufferView":3,"componentType":5121,"count":223963,"max":[255,255,255,255],"min":[1,0,0,255],"normalized":true,"type":"VEC4"},{"bufferView":4,"componentType":5126,"count":206291,"max":[0.15669408440589905,0.13972607254981995,-0.2697499990463257],"min":[-0.15372079610824585,-0.1843806356191635,-0.39750000834465027],"type":"VEC3"},{"bufferView":5,"componentType":5121,"count":206291,"max":[255,254,255,255],"min":[2,0,0,255],"normalized":true,"type":"VEC4"},{"bufferView":6,"componentType":5126,"count":206475,"max":[0.15360896289348602,0.13930772244930267,-0.2692500054836273],"min":[-0.1534058302640915,-0.1843806356191635,-0.38587501645088196],"type":"VEC3"},{"bufferView":7,"componentType":5121,"count":206475,"max":[255,254,255,255],"min":[1,0,0,255],"normalized":true,"type":"VEC4"},{"bufferView":8,"componentType":5126,"count":207461,"max":[0.15350942313671112,0.13947008550167084,-0.2691250145435333],"min":[-0.1532045602798462,-0.18466511368751526,-0.38587501645088196],"type":"VEC3"},{"bufferView":9,"componentType":5121,"count":207461,"max":[255,254,255,255],"min":[1,0,0,255],"normalized":true,"type":"VEC4"},{"bufferView":10,"componentType":5126,"count":207935,"max":[0.15321089327335358,0.1389288753271103,-0.26887500286102295],"min":[-0.1534058302640915,-0.18466511368751526,-0.38587501645088196],"type":"VEC3"},{"bufferView":11,"componentType":5121,"count":207935,"max":[255,253,255,255],"min":[2,0,0,255],"normalized":true,"type":"VEC4"},{"bufferView":12,"componentType":5126,"count":205406,"max":[0.15350942313671112,0.1396232545375824,-0.26875001192092896],"min":[-0.1526511162519455,-0.18453098833560944,-0.38587501645088196],"type":"VEC3"},{"bufferView":13,"componentType":5121,"count":205406,"max":[255,255,255,255],"min":[2,0,0,255],"normalized":true,"type":"VEC4"},{"bufferView":14,"componentType":5126,"count":207405,"max":[0.15350942313671112,0.14039020240306854,-0.2691250145435333],"min":[-0.15295299887657166,-0.18458051979541779,-0.38587501645088196],"type":"VEC3"},{"bufferView":15,"componentType":5121,"count":207405,"max":[255,255,255,255],"min":[2,0,0,255],"normalized":true,"type":"VEC4"},{"bufferView":16,"componentType":5126,"count":207987,"max":[0.15331043303012848,0.14177162945270538,-0.2692500054836273],"min":[-0.15355674922466278,-0.1843806356191635,-0.38587501645088196],"type":"VEC3"},{"bufferView":17,"componentType":5121,"count":207987,"max":[255,255,255,255],"min":[1,0,0,255],"normalized":true,"type":"VEC4"},{"bufferView":18,"componentType":5126,"count":207375,"max":[0.15360896289348602,0.13930630683898926,-0.26875001192092896],"min":[-0.1522989273071289,-0.18493330478668213,-0.38587501645088196],"type":"VEC3"},{"bufferView":19,"componentType":5121,"count":207375,"max":[255,254,255,255],"min":[2,0,0,255],"normalized":true,"type":"VEC4"},{"bufferView":20,"componentType":5126,"count":207931,"max":[0.15331043303012848,0.14107845723628998,-0.26900002360343933],"min":[-0.15255048871040344,-0.18506743013858795,-0.38587501645088196],"type":"VEC3"},{"bufferView":21,"componentType":5121,"count":207931,"max":[255,247,255,255],"min":[2,0,0,255],"normalized":true,"type":"VEC4"},{"bufferView":22,"componentType":5126,"count":207545,"max":[0.15360896289348602,0.1400299072265625,-0.26875001192092896],"min":[-0.1522989273071289,-0.1870977133512497,-0.38587501645088196],"type":"VEC3"},{"bufferView":23,"componentType":5121,"count":207545,"max":[255,253,255,255],"min":[2,0,0,255],"normalized":true,"type":"VEC4"},{"bufferView":24,"componentType":5126,"count":203419,"max":[0.15360896289348602,0.1373087465763092,-0.26987501978874207],"min":[-0.1532045602798462,-0.18697939813137054,-0.38587501645088196],"type":"VEC3"},{"bufferView":25,"componentType":5121,"count":203419,"max":[255,245,255,255],"min":[1,0,0,255],"normalized":true,"type":"VEC4"},{"bufferView":26,"componentType":5126,"count":203004,"max":[0.15360896289348602,0.13848145306110382,-0.2691250145435333],"min":[-0.15255048871040344,-0.18593911826610565,-0.38587501645088196],"type":"VEC3"},{"bufferView":27,"componentType":5121,"count":203004,"max":[255,253,255,255],"min":[2,0,0,255],"normalized":true,"type":"VEC4"},{"bufferView":28,"componentType":5126,"count":202660,"max":[0.15360896289348602,0.13669386506080627,-0.27012500166893005],"min":[-0.15184609591960907,-0.1852685660123825,-0.38587501645088196],"type":"VEC3"},{"bufferView":29,"componentType":5121,"count":202660,"max":[255,250,255,255],"min":[2,0,0,255],"normalized":true,"type":"VEC4"},{"bufferView":30,"componentType":5126,"count":202588,"max":[0.15360896289348602,0.13487793505191803,-0.2693750262260437],"min":[-0.1532045602798462,-0.1852685660123825,-0.38587501645088196],"type":"VEC3"},{"bufferView":31,"componentType":5121,"count":202588,"max":[255,247,255,255],"min":[1,0,0,255],"normalized":true,"type":"VEC4"},{"bufferView":32,"componentType":5126,"count":201181,"max":[0.15360896289348602,0.1362380087375641,-0.2672500014305115],"min":[-0.15239953994750977,-0.1852685660123825,-0.38587501645088196],"type":"VEC3"},{"bufferView":33,"componentType":5121,"count":201181,"max":[255,255,255,255],"min":[0,0,0,255],"normalized":true,"type":"VEC4"},{"bufferView":34,"componentType":5126,"count":205594,"max":[0.15222041308879852,0.13629627227783203,-0.2696250081062317],"min":[-0.15134297311306,-0.1843806356191635,-0.38587501645088196],"type":"VEC3"},{"bufferView":35,"componentType":5121,"count":205594,"max":[255,255,255,255],"min":[1,0,0,255],"normalized":true,"type":"VEC4"},{"bufferView":36,"componentType":5126,"count":18,"max":[0.5666667222976685],"min":[0.0],"type":"SCALAR"},{"bufferView":37,"componentType":5126,"count":18,"type":"VEC3"},{"bufferView":38,"componentType":5126,"count":18,"type":"VEC3"},{"bufferView":39,"componentType":5126,"count":18,"type":"VEC3"},{"bufferView":40,"componentType":5126,"count":18,"type":"VEC3"},{"bufferView":41,"componentType":5126,"count":18,"type":"VEC3"},{"bufferView":42,"componentType":5126,"count":18,"type":"VEC3"},{"bufferView":43,"componentType":5126,"count":18,"type":"VEC3"},{"bufferView":44,"componentType":5126,"count":18,"type":"VEC3"},{"bufferView":45,"componentType":5126,"count":18,"type":"VEC3"},{"bufferView":46,"componentType":5126,"count":18,"type":"VEC3"},{"bufferView":47,"componentType":5126,"count":18,"type":"VEC3"},{"bufferView":48,"componentType":5126,"count":18,"type":"VEC3"},{"bufferView":49,"componentType":5126,"count":18,"type":"VEC3"},{"bufferView":50,"componentType":5126,"count":18,"type":"VEC3"},{"bufferView":51,"componentType":5126,"count":18,"type":"VEC3"},{"bufferView":52,"componentType":5126,"count":18,"type":"VEC3"},{"bufferView":53,"componentType":5126,"count":18,"type":"VEC3"},{"bufferView":54,"componentType":5126,"count":18,"type":"VEC3"}],"animations":[{"channels":[{"sampler":0,"target":{"node":1,"path":"scale"}},{"sampler":1,"target":{"node":2,"path":"scale"}},{"sampler":2,"target":{"node":3,"path":"scale"}},{"sampler":3,"target":{"node":4,"path":"scale"}},{"sampler":4,"target":{"node":5,"path":"scale"}},{"sampler":5,"target":{"node":6,"path":"scale"}},{"sampler":6,"target":{"node":7,"path":"scale"}},{"sampler":7,"target":{"node":8,"path":"scale"}},{"sampler":8,"target":{"node":9,"path":"scale"}},{"sampler":9,"target":{"node":10,"path":"scale"}},{"sampler":10,"target":{"node":11,"path":"scale"}},{"sampler":11,"target":{"node":12,"path":"scale"}},{"sampler":12,"target":{"node":13,"path":"scale"}},{"sampler":13,"target":{"node":14,"path":"scale"}},{"sampler":14,"target":{"node":15,"path":"scale"}},{"sampler":15,"target":{"node":16,"path":"scale"}},{"sampler":16,"target":{"node":17,"path":"scale"}},{"sampler":17,"target":{"node":18,"path":"scale"}}],"samplers":[{"input":36,"interpolation":"STEP","output":37},{"input":36,"interpolation":"STEP","output":38},{"input":36,"interpolation":"STEP","output":39},{"input":36,"interpolation":"STEP","output":40},{"input":36,"interpolation":"STEP","output":41},{"input":36,"interpolation":"STEP","output":42},{"input":36,"interpolation":"STEP","output":43},{"input":36,"interpolation":"STEP","output":44},{"input":36,"interpolation":"STEP","output":45},{"input":36,"interpolation":"STEP","output":46},{"input":36,"interpolation":"STEP","output":47},{"input":36,"interpolation":"STEP","output":48},{"input":36,"interpolation":"STEP","output":49},{"input":36,"interpolation":"STEP","output":50},{"input":36,"interpolation":"STEP","output":51},{"input":36,"interpolation":"STEP","output":52},{"input":36,"interpolation":"STEP","output":53},{"input":36,"interpolation":"STEP","output":54}]}],"asset":{"generator":"Generated by Record3D (https://record3d.app/","version":"2.0"},"bufferViews":[{"buffer":0,"byteLength":2500212,"byteOffset":0,"target":34962},{"buffer":0,"byteLength":833404,"byteOffset":2500212,"target":34962},{"buffer":0,"byteLength":2687556,"byteOffset":3333616,"target":34962},{"buffer":0,"byteLength":895852,"byteOffset":6021172,"target":34962},{"buffer":0,"byteLength":2475492,"byteOffset":6917024,"target":34962},{"buffer":0,"byteLength":825164,"byteOffset":9392516,"target":34962},{"buffer":0,"byteLength":2477700,"byteOffset":10217680,"target":34962},{"buffer":0,"byteLength":825900,"byteOffset":12695380,"target":34962},{"buffer":0,"byteLength":2489532,"byteOffset":13521280,"target":34962},{"buffer":0,"byteLength":829844,"byteOffset":16010812,"target":34962},{"buffer":0,"byteLength":2495220,"byteOffset":16840656,"target":34962},{"buffer":0,"byteLength":831740,"byteOffset":19335876,"target":34962},{"buffer":0,"byteLength":2464872,"byteOffset":20167616,"target":34962},{"buffer":0,"byteLength":821624,"byteOffset":22632488,"target":34962},{"buffer":0,"byteLength":2488860,"byteOffset":23454112,"target":34962},{"buffer":0,"byteLength":829620,"byteOffset":25942972,"target":34962},{"buffer":0,"byteLength":2495844,"byteOffset":26772592,"target":34962},{"buffer":0,"byteLength":831948,"byteOffset":29268436,"target":34962},{"buffer":0,"byteLength":2488500,"byteOffset":30100384,"target":34962},{"buffer":0,"byteLength":829500,"byteOffset":32588884,"target":34962},{"buffer":0,"byteLength":2495172,"byteOffset":33418384,"target":34962},{"buffer":0,"byteLength":831724,"byteOffset":35913556,"target":34962},{"buffer":0,"byteLength":2490540,"byteOffset":36745280,"target":34962},{"buffer":0,"byteLength":830180,"byteOffset":39235820,"target":34962},{"buffer":0,"byteLength":2441028,"byteOffset":40066000,"target":34962},{"buffer":0,"byteLength":813676,"byteOffset":42507028,"target":34962},{"buffer":0,"byteLength":2436048,"byteOffset":43320704,"target":34962},{"buffer":0,"byteLength":812016,"byteOffset":45756752,"target":34962},{"buffer":0,"byteLength":2431920,"byteOffset":46568768,"target":34962},{"buffer":0,"byteLength":810640,"byteOffset":49000688,"target":34962},{"buffer":0,"byteLength":2431056,"byteOffset":49811328,"target":34962},{"buffer":0,"byteLength":810352,"byteOffset":52242384,"target":34962},{"buffer":0,"byteLength":2414172,"byteOffset":53052736,"target":34962},{"buffer":0,"byteLength":804724,"byteOffset":55466908,"target":34962},{"buffer":0,"byteLength":2467128,"byteOffset":56271632,"target":34962},{"buffer":0,"byteLength":822376,"byteOffset":58738760,"target":34962},{"buffer":0,"byteLength":72,"byteOffset":59561136},{"buffer":0,"byteLength":216,"byteOffset":59561208},{"buffer":0,"byteLength":216,"byteOffset":59561424},{"buffer":0,"byteLength":216,"byteOffset":59561640},{"buffer":0,"byteLength":216,"byteOffset":59561856},{"buffer":0,"byteLength":216,"byteOffset":59562072},{"buffer":0,"byteLength":216,"byteOffset":59562288},{"buffer":0,"byteLength":216,"byteOffset":59562504},{"buffer":0,"byteLength":216,"byteOffset":59562720},{"buffer":0,"byteLength":216,"byteOffset":59562936},{"buffer":0,"byteLength":216,"byteOffset":59563152},{"buffer":0,"byteLength":216,"byteOffset":59563368},{"buffer":0,"byteLength":216,"byteOffset":59563584},{"buffer":0,"byteLength":216,"byteOffset":59563800},{"buffer":0,"byteLength":216,"byteOffset":59564016},{"buffer":0,"byteLength":216,"byteOffset":59564232},{"buffer":0,"byteLength":216,"byteOffset":59564448},{"buffer":0,"byteLength":216,"byteOffset":59564664},{"buffer":0,"byteLength":216,"byteOffset":59564880}],"buffers":[{"byteLength":59565096,"uri":"2020-04-12--17-40-08.bin"}],"extensionsUsed":["KHR_materials_unlit"],"materials":[{"extensions":{"KHR_materials_unlit":{}},"pbrMetallicRoughness":{}}],"meshes":[{"name":"m_0","primitives":[{"attributes":{"COLOR_0":1,"POSITION":0},"material":0,"mode":0}]},{"name":"m_1","primitives":[{"attributes":{"COLOR_0":3,"POSITION":2},"material":0,"mode":0}]},{"name":"m_2","primitives":[{"attributes":{"COLOR_0":5,"POSITION":4},"material":0,"mode":0}]},{"name":"m_3","primitives":[{"attributes":{"COLOR_0":7,"POSITION":6},"material":0,"mode":0}]},{"name":"m_4","primitives":[{"attributes":{"COLOR_0":9,"POSITION":8},"material":0,"mode":0}]},{"name":"m_5","primitives":[{"attributes":{"COLOR_0":11,"POSITION":10},"material":0,"mode":0}]},{"name":"m_6","primitives":[{"attributes":{"COLOR_0":13,"POSITION":12},"material":0,"mode":0}]},{"name":"m_7","primitives":[{"attributes":{"COLOR_0":15,"POSITION":14},"material":0,"mode":0}]},{"name":"m_8","primitives":[{"attributes":{"COLOR_0":17,"POSITION":16},"material":0,"mode":0}]},{"name":"m_9","primitives":[{"attributes":{"COLOR_0":19,"POSITION":18},"material":0,"mode":0}]},{"name":"m_10","primitives":[{"attributes":{"COLOR_0":21,"POSITION":20},"material":0,"mode":0}]},{"name":"m_11","primitives":[{"attributes":{"COLOR_0":23,"POSITION":22},"material":0,"mode":0}]},{"name":"m_12","primitives":[{"attributes":{"COLOR_0":25,"POSITION":24},"material":0,"mode":0}]},{"name":"m_13","primitives":[{"attributes":{"COLOR_0":27,"POSITION":26},"material":0,"mode":0}]},{"name":"m_14","primitives":[{"attributes":{"COLOR_0":29,"POSITION":28},"material":0,"mode":0}]},{"name":"m_15","primitives":[{"attributes":{"COLOR_0":31,"POSITION":30},"material":0,"mode":0}]},{"name":"m_16","primitives":[{"attributes":{"COLOR_0":33,"POSITION":32},"material":0,"mode":0}]},{"name":"m_17","primitives":[{"attributes":{"COLOR_0":35,"POSITION":34},"material":0,"mode":0}]}],"nodes":[{"children":[1,2,3,4,5,6,7,8,9,10,11,12,13,14,15,16,17,18],"name":"rootObj"},{"mesh":0,"name":"ptc_0","scale":[1,1,1]},{"mesh":1,"name":"ptc_1","scale":[1,1,1]},{"mesh":2,"name":"ptc_2","scale":[1,1,1]},{"mesh":3,"name":"ptc_3","scale":[1,1,1]},{"mesh":4,"name":"ptc_4","scale":[1,1,1]},{"mesh":5,"name":"ptc_5","scale":[1,1,1]},{"mesh":6,"name":"ptc_6","scale":[1,1,1]},{"mesh":7,"name":"ptc_7","scale":[1,1,1]},{"mesh":8,"name":"ptc_8","scale":[1,1,1]},{"mesh":9,"name":"ptc_9","scale":[1,1,1]},{"mesh":10,"name":"ptc_10","scale":[1,1,1]},{"mesh":11,"name":"ptc_11","scale":[1,1,1]},{"mesh":12,"name":"ptc_12","scale":[1,1,1]},{"mesh":13,"name":"ptc_13","scale":[1,1,1]},{"mesh":14,"name":"ptc_14","scale":[1,1,1]},{"mesh":15,"name":"ptc_15","scale":[1,1,1]},{"mesh":16,"name":"ptc_16","scale":[1,1,1]},{"mesh":17,"name":"ptc_17","scale":[1,1,1]}],"scene":0,"scenes":[{"nodes":[0]}]}